<svg xmlns="http://www.w3.org/2000/svg" width="1200" height="430" viewBox="0 0 1200 430">
<defs><marker id="a" markerWidth="10" markerHeight="10" refX="9" refY="3" orient="auto"><path d="M0,0 L0,6 L9,3 z" fill="#666"/></marker></defs>
<text x="600" y="42" text-anchor="middle" font-family="Arial" font-size="30" font-weight="bold">Станция экомониторинга</text>
<rect x="40" y="105" width="255" height="205" rx="18" fill="#f5f5f5" stroke="#555"/>
<text x="168" y="145" text-anchor="middle" font-family="Arial" font-size="25" font-weight="bold">ESP32-S3 UNO</text>
<text x="168" y="185" text-anchor="middle" font-family="Arial" font-size="19">Температура</text>
<text x="168" y="215" text-anchor="middle" font-family="Arial" font-size="19">Влажность</text>
<text x="168" y="245" text-anchor="middle" font-family="Arial" font-size="19">Давление</text>
<text x="168" y="275" text-anchor="middle" font-family="Arial" font-size="19">PM2.5</text>
<rect x="465" y="105" width="270" height="205" rx="18" fill="#eef6ff" stroke="#3b6ea8"/>
<text x="600" y="155" text-anchor="middle" font-family="Arial" font-size="28" font-weight="bold">Mosquitto</text>
<text x="600" y="195" text-anchor="middle" font-family="Arial" font-size="20">локальный брокер</text>
<text x="600" y="235" text-anchor="middle" font-family="Arial" font-size="19">MQTT :1883</text>
<text x="600" y="270" text-anchor="middle" font-family="Arial" font-size="19">WebSocket :1884</text>
<rect x="905" y="105" width="255" height="205" rx="18" fill="#f5f5f5" stroke="#555"/>
<text x="1033" y="145" text-anchor="middle" font-family="Arial" font-size="25" font-weight="bold">Web-приложение</text>
<text x="1033" y="187" text-anchor="middle" font-family="Arial" font-size="20">Яндекс.Карта</text>
<text x="1033" y="225" text-anchor="middle" font-family="Arial" font-size="19">маркеры станций</text>
<text x="1033" y="260" text-anchor="middle" font-family="Arial" font-size="19">PM2.5: зел / жел / крас</text>
<line x1="295" y1="205" x2="460" y2="205" stroke="#666" stroke-width="4" marker-end="url(#a)"/>
<line x1="735" y1="205" x2="900" y2="205" stroke="#666" stroke-width="4" marker-end="url(#a)"/>
<text x="378" y="180" text-anchor="middle" font-family="Arial" font-size="18">JSON / MQTT</text>
<text x="818" y="180" text-anchor="middle" font-family="Arial" font-size="18">MQTT / WebSocket</text>
<text x="600" y="365" text-anchor="middle" font-family="Arial" font-size="20">Topic: iot_practice/eco</text>
<text x="600" y="400" text-anchor="middle" font-family="Arial" font-size="20">ID станции: Eco-01</text>
</svg>